<?xml version="1.0" encoding="utf-8"?>
<!-- Generator: Adobe Illustrator 24.0.2, SVG Export Plug-In . SVG Version: 6.00 Build 0)  -->
<svg version="1.1" id="Capa_1" xmlns="http://www.w3.org/2000/svg" xmlns:xlink="http://www.w3.org/1999/xlink" x="0px" y="0px"
	 viewBox="0 0 187.3 30" style="enable-background:new 0 0 187.3 30;" xml:space="preserve">
<style type="text/css">
	.st0{fill:#FFFFFF;}
</style>
<g>
	<path class="st0" d="M21.9,0.5c-6,0-12.3,1.4-18.7,3.1C2.3,3.8,1.6,4.3,1.1,5C0.8,5.6,0.6,6.2,0.5,6.8c-0.6,3.5-0.5,6.9-0.4,10.6
		c0,0.9,0.2,1.9,0.6,2.5c0.4,0.6,1.1,1,2,1.2c1.1,0.2,2.2,0.3,3.3,0.4l-0.2,6.8c0,0.5,0.2,1,0.6,1.2c0.3,0.2,0.6,0.3,1,0.3
		c0.7,0.1,1.5-0.2,1.9-1c1.7-3.3,2.8-4.8,4.9-6.9c5.6,0.1,10.5-0.2,16-0.6c2-0.1,3.3-1.6,3.7-2.9c1.1-3.3,1.2-7.4,1.3-11.5
		c0-1.6-0.5-3.2-1.5-4.1c-1-0.8-2.1-1.1-3.2-1.3C27.4,0.9,24.4,0.5,21.9,0.5z M29.9,3.1c1.1,0.3,2,0.6,2.6,1c1,1,1,1.7,0.9,2.9
		c-0.1,4-0.3,7.9-1.2,10.8c-0.4,1.1-1.1,1.9-2.3,2c-5.6,0.4-10.5,0.7-16.2,0.6c-0.2,0-0.4,0.1-0.6,0.2c-2.4,2.4-3.6,4.1-5.4,7.6
		c0,0.1-0.1,0.1-0.2,0.1c-0.1,0-0.1-0.1-0.1-0.1l0.2-7.4c0-0.4-0.3-0.8-0.7-0.8c-1.3-0.1-2.6-0.3-4-0.5c-0.6-0.1-0.8-0.2-0.9-0.5
		c-0.3-0.6-0.3-1-0.3-1.7c-0.1-3.7-0.2-7,0.4-10.2c0.1-0.5,0.2-1,0.4-1.4c0.3-0.5,0.8-0.6,1.3-0.7c6.2-1.7,12.3-3,18-3
		C24.6,2.2,27.6,2.5,29.9,3.1z M8.4,9.4c-0.9,1-0.8,2.4-0.1,3.4c0.3,0.5,0.9,0.9,1.5,1c0.9,0.1,1.4-0.3,2-0.7
		c1.1-0.9,1.2-2.5,0.4-3.7c-0.4-0.6-1.1-0.9-1.7-1C9.5,8.4,8.9,8.8,8.4,9.4L8.4,9.4z M17.7,8.6c-0.9,0-1.5,0.6-2,1.3
		c-0.5,0.7-0.8,1.6-0.4,2.5c0.8,1.7,3.3,1.7,4.4,0c0.5-0.8,0.4-1.7,0-2.4c-0.4-0.7-0.9-1.2-1.7-1.3C17.9,8.6,17.8,8.6,17.7,8.6z
		 M25.2,8.7c-0.3,0-0.5,0-0.8,0.1c-1,0.3-1.9,1.3-1.8,2.7c0.1,0.7,0.4,1.3,0.9,1.8c0.6,0.5,1.4,0.7,2.3,0.5c1-0.2,1.6-1,1.8-1.8
		c0.2-0.8,0.2-1.6-0.3-2.2C26.8,9.1,26,8.7,25.2,8.7L25.2,8.7z M10.4,10c0.2,0,0.3,0.1,0.5,0.3c0.3,0.5,0.3,1.3-0.1,1.6
		c-0.3,0.3-0.6,0.3-0.7,0.3c-0.2,0-0.3-0.1-0.4-0.3c-0.3-0.4-0.3-1,0-1.4C9.8,10.2,10.1,10,10.4,10L10.4,10z M17.8,10.2
		c0,0,0.4,0.2,0.5,0.5c0.2,0.3,0.2,0.6,0,0.8c-0.5,0.8-1.4,0.6-1.6,0.2c-0.1-0.1,0-0.6,0.3-1C17.3,10.3,17.6,10.1,17.8,10.2
		L17.8,10.2z M26.1,10.8c0,0.1,0.2,0.5,0.1,0.8c-0.1,0.3-0.2,0.6-0.6,0.6c-0.5,0.1-0.7,0-0.9-0.2c-0.2-0.2-0.3-0.4-0.4-0.7
		c-0.1-0.7,0.2-0.9,0.6-1C25.3,10.2,25.8,10.4,26.1,10.8z"/>
	<path class="st0" d="M45,3.7c0-0.2,0.1-0.4,0.2-0.5c0.1-0.2,0.3-0.2,0.5-0.2h5.3c0.2,0,0.4,0.1,0.6,0.2C51.9,3.3,52,3.5,52,3.7v8.5
		h8.9V3.7c0-0.2,0.1-0.4,0.2-0.6c0.2-0.2,0.3-0.2,0.6-0.2H67c0.2,0,0.4,0.1,0.6,0.2c0.2,0.1,0.3,0.3,0.3,0.6v25.1
		c0,0.3-0.1,0.5-0.2,0.6c-0.2,0.1-0.4,0.2-0.6,0.2h-5.3c-0.2,0-0.4-0.1-0.6-0.2c-0.1-0.1-0.2-0.3-0.2-0.6V18.6H52v10.2
		c0,0.3-0.1,0.4-0.2,0.6c-0.2,0.1-0.4,0.2-0.7,0.2h-5.3c-0.5,0-0.8-0.2-0.8-0.7C45,28.9,45,3.7,45,3.7z M94.2,29.3
		c-0.2,0.1-0.3,0.2-0.5,0.3c-0.2,0-0.3,0.1-0.5,0.1h-2.7c-0.2,0-0.4,0-0.6-0.1c-0.2-0.1-0.3-0.2-0.4-0.3c-0.1-0.1-0.2-0.3-0.3-0.4
		c-0.1-0.2-0.1-0.3-0.2-0.5l-0.6-2.3c-0.2,0.4-0.4,0.8-0.8,1.3c-0.4,0.5-0.8,0.9-1.3,1.3c-0.5,0.4-1.2,0.8-1.9,1
		c-0.7,0.3-1.6,0.4-2.5,0.4c-1.4,0-2.6-0.3-3.7-0.8c-1.1-0.5-2.1-1.2-2.8-2.2c-0.8-0.9-1.4-2-1.8-3.2c-0.4-1.2-0.6-2.5-0.6-3.9V8.2
		c0-0.5,0.1-0.8,0.3-1c0.2-0.2,0.5-0.3,0.9-0.3h4.1c0.5,0,0.9,0.1,1.1,0.3c0.2,0.2,0.3,0.5,0.3,1v11.7c0,0.5,0.1,1,0.4,1.5
		c0.2,0.5,0.5,0.9,0.9,1.2c0.4,0.4,0.8,0.6,1.3,0.8c0.5,0.2,1,0.3,1.5,0.3c0.4,0,0.9-0.1,1.3-0.3c0.5-0.2,0.9-0.5,1.3-0.8
		c0.4-0.3,0.7-0.7,1-1.2c0.3-0.5,0.4-0.9,0.4-1.5V8.1c0-0.2,0-0.4,0.1-0.6C87.9,7.3,88,7.1,88.2,7c0.2-0.1,0.3-0.2,0.4-0.2
		c0.1,0,0.3-0.1,0.5-0.1h4.1c0.5,0,0.9,0.1,1.1,0.4c0.2,0.3,0.3,0.6,0.3,1v20.1c0,0.2-0.1,0.4-0.2,0.6s-0.2,0.3-0.4,0.4
		C94.1,29.3,94.2,29.3,94.2,29.3z M115,26.8c-0.3,0.3-0.7,0.7-1.1,1c-0.4,0.4-0.8,0.7-1.3,1c-0.5,0.3-1,0.6-1.5,0.8
		c-0.6,0.2-1.1,0.3-1.7,0.3c-1.6,0-3.1-0.3-4.5-0.9c-1.3-0.6-2.5-1.4-3.5-2.5c-1-1.1-1.8-2.3-2.3-3.7c-0.6-1.4-0.8-3-0.8-4.6
		c0-1.7,0.3-3.2,0.8-4.6c0.6-1.4,1.3-2.7,2.3-3.7c1-1.1,2.2-1.9,3.5-2.5c1.4-0.6,2.9-0.9,4.5-0.9c0.7,0,1.3,0.1,1.8,0.3
		c0.5,0.2,1,0.4,1.5,0.7c0.4,0.3,0.9,0.6,1.2,1c0.4,0.4,0.7,0.7,1.1,1.1V1.4c0-0.4,0.1-0.7,0.4-1c0.2-0.3,0.6-0.4,1.1-0.4h4
		c0.2,0,0.3,0,0.5,0.1c0.2,0.1,0.3,0.2,0.5,0.3c0.1,0.1,0.3,0.3,0.3,0.4c0.1,0.2,0.1,0.4,0.1,0.6v26.8c0,0.9-0.5,1.4-1.5,1.4h-3.5
		c-0.2,0-0.4,0-0.6-0.1c-0.1-0.1-0.2-0.1-0.3-0.3c-0.1-0.1-0.2-0.3-0.2-0.4c-0.1-0.2-0.2-0.4-0.3-0.6L115,26.8L115,26.8z
		 M104.7,18.2c0,0.8,0.1,1.5,0.4,2.2c0.2,0.7,0.6,1.3,1.1,1.8c0.5,0.5,1,0.9,1.6,1.2c0.6,0.3,1.4,0.4,2.1,0.4c0.8,0,1.5-0.1,2.2-0.4
		c0.7-0.3,1.3-0.7,1.8-1.1c0.5-0.5,0.9-1.1,1.2-1.7c0.3-0.7,0.5-1.4,0.5-2.1v-0.3c0-0.8-0.1-1.5-0.4-2.2c-0.3-0.7-0.7-1.3-1.2-1.8
		c-0.5-0.5-1.1-1-1.8-1.2c-0.7-0.3-1.5-0.5-2.2-0.5c-0.8,0-1.5,0.2-2.1,0.5c-0.6,0.3-1.2,0.7-1.6,1.2c-0.5,0.5-0.8,1.2-1.1,1.8
		C104.8,16.7,104.7,17.5,104.7,18.2L104.7,18.2z M142.8,26.8c-0.3,0.3-0.7,0.7-1.1,1s-0.8,0.7-1.3,1c-0.5,0.3-1,0.6-1.5,0.8
		c-0.6,0.2-1.1,0.3-1.7,0.3c-1.6,0-3.1-0.3-4.5-0.9c-1.3-0.6-2.5-1.4-3.5-2.5c-1-1.1-1.8-2.3-2.3-3.7c-0.6-1.4-0.8-3-0.8-4.6
		c0-1.7,0.3-3.2,0.8-4.6s1.3-2.7,2.3-3.7c1-1.1,2.2-1.9,3.5-2.5c1.4-0.6,2.9-0.9,4.5-0.9c0.7,0,1.3,0.1,1.8,0.3
		c0.5,0.2,1,0.4,1.5,0.7c0.4,0.3,0.9,0.6,1.2,1c0.4,0.4,0.7,0.7,1.1,1.1V1.4c0-0.4,0.1-0.7,0.4-1c0.2-0.3,0.6-0.4,1.1-0.4h4
		c0.2,0,0.3,0,0.5,0.1c0.2,0.1,0.3,0.2,0.5,0.3c0.1,0.1,0.3,0.3,0.4,0.4c0.1,0.2,0.1,0.4,0.1,0.6v26.8c0,0.9-0.5,1.4-1.5,1.4h-3.5
		c-0.2,0-0.4,0-0.6-0.1c-0.1-0.1-0.2-0.1-0.3-0.3c-0.1-0.1-0.2-0.3-0.2-0.4c-0.1-0.2-0.2-0.4-0.3-0.6L142.8,26.8L142.8,26.8z
		 M132.4,18.2c0,0.8,0.1,1.5,0.4,2.2c0.2,0.7,0.6,1.3,1.1,1.8c0.5,0.5,1,0.9,1.6,1.2c0.6,0.3,1.3,0.4,2.1,0.4c0.8,0,1.5-0.1,2.2-0.4
		c0.7-0.3,1.3-0.7,1.8-1.1c0.5-0.5,0.9-1.1,1.2-1.7c0.3-0.7,0.5-1.4,0.5-2.1v-0.3c0-0.8-0.1-1.5-0.4-2.2c-0.3-0.7-0.7-1.3-1.2-1.8
		c-0.5-0.5-1.1-1-1.8-1.2c-0.7-0.3-1.5-0.5-2.2-0.5c-0.8,0-1.5,0.2-2.1,0.5c-0.6,0.3-1.2,0.7-1.6,1.2c-0.5,0.5-0.8,1.2-1.1,1.8
		C132.6,16.7,132.4,17.5,132.4,18.2L132.4,18.2z M154.4,1.4c0-0.4,0.1-0.7,0.3-1c0.2-0.3,0.5-0.4,1-0.4h4.4c0.1,0,0.2,0,0.4,0.1
		c0.1,0.1,0.3,0.2,0.4,0.3c0.1,0.1,0.2,0.3,0.3,0.4c0.1,0.2,0.1,0.4,0.1,0.6v26.8c0,0.5-0.1,0.8-0.4,1c-0.3,0.2-0.6,0.3-1,0.3h-4.2
		c-0.5,0-0.8-0.1-1-0.3c-0.2-0.2-0.3-0.6-0.3-1V1.4z M184.7,26.9c-1,1-2.2,1.7-3.6,2.3c-1.3,0.5-2.7,0.8-4.2,0.8
		c-1.6,0-3.2-0.3-4.7-0.9c-1.4-0.6-2.7-1.4-3.8-2.5c-1.1-1.1-2-2.3-2.6-3.7c-0.6-1.4-1-3-1-4.7c0-1.1,0.1-2.1,0.4-3.1
		c0.2-1,0.6-1.9,1.1-2.8c0.5-0.9,1.1-1.7,1.7-2.4c0.7-0.7,1.4-1.3,2.3-1.9c0.9-0.5,1.8-0.9,2.7-1.2c1-0.3,2.1-0.4,3.1-0.4
		c1,0,2,0.1,2.9,0.4c0.9,0.3,1.8,0.6,2.6,1.1c0.8,0.5,1.6,1.1,2.3,1.7c0.7,0.7,1.3,1.4,1.8,2.2c0.5,0.8,0.9,1.7,1.1,2.5
		c0.3,0.9,0.4,1.8,0.4,2.8c0,0.6,0,1.1,0,1.5c0,0.4-0.1,0.7-0.3,0.9c-0.2,0.2-0.4,0.4-0.8,0.5c-0.4,0.1-1,0.1-1.7,0.1h-12.9
		c0.1,0.8,0.4,1.4,0.7,1.9c0.3,0.5,0.8,0.9,1.3,1.2c0.5,0.3,1,0.5,1.5,0.7c0.5,0.1,1,0.2,1.5,0.2c0.4,0,0.9,0,1.3-0.1
		c0.4-0.1,0.9-0.2,1.3-0.4c0.4-0.1,0.8-0.3,1.2-0.5c0.4-0.2,0.6-0.4,0.9-0.6c0.2-0.2,0.4-0.3,0.5-0.4c0.1-0.1,0.3-0.1,0.4-0.1
		c0.2,0,0.3,0.1,0.5,0.2c0.2,0.1,0.4,0.3,0.5,0.5L185,25c0.1,0.2,0.2,0.3,0.3,0.4c0,0.1,0.1,0.3,0.1,0.4c0,0.2-0.1,0.4-0.2,0.6
		C185,26.6,184.9,26.7,184.7,26.9L184.7,26.9z M176,11.9c-0.5,0-0.9,0.1-1.4,0.3c-0.4,0.2-0.9,0.4-1.2,0.7c-0.4,0.3-0.7,0.7-1,1.1
		c-0.3,0.4-0.5,0.8-0.7,1.2h9.2c-0.2-0.5-0.5-0.9-0.8-1.3c-0.3-0.4-0.6-0.7-1-1c-0.4-0.3-0.8-0.5-1.3-0.7
		C177.3,12,176.7,11.9,176,11.9z"/>
</g>
</svg>
